HIERARCHY
ROOT Hips
{
	OFFSET -32.860001 56.121803 44.745396
	CHANNELS 6 Xposition Yposition Zposition Zrotation Xrotation Yrotation
	JOINT Chest
	{
		OFFSET -0.637402 0.831600 5.390099
		CHANNELS 6 Xposition Yposition Zposition Zrotation Xrotation Yrotation
		JOINT Chest2
		{
			OFFSET 0.000000 0.000000 4.429901
			CHANNELS 6 Xposition Yposition Zposition Zrotation Xrotation Yrotation
			JOINT Neck
			{
				OFFSET 0.000000 0.000000 10.301395
				CHANNELS 6 Xposition Yposition Zposition Zrotation Xrotation Yrotation
				JOINT Head
				{
					OFFSET 0.000000 0.000000 2.173897
					CHANNELS 6 Xposition Yposition Zposition Zrotation Xrotation Yrotation
					End Site
					{
						OFFSET 0.000000 0.000000 8.298004
					}
				}
			}
			JOINT LeftCollar
			{
				OFFSET 2.142401 -0.572701 5.717800
				CHANNELS 6 Xposition Yposition Zposition Zrotation Xrotation Yrotation
				JOINT LeftShoulder
				{
					OFFSET 5.674000 0.000000 0.000000
					CHANNELS 6 Xposition Yposition Zposition Zrotation Xrotation Yrotation
					JOINT LeftElbow
					{
						OFFSET 0.000000 0.000000 -12.238701
						CHANNELS 6 Xposition Yposition Zposition Zrotation Xrotation Yrotation
						JOINT LeftWrist
						{
							OFFSET 0.000000 0.000000 -10.253700
							CHANNELS 6 Xposition Yposition Zposition Zrotation Xrotation Yrotation
							End Site
							{
								OFFSET 0.000000 0.000000 -2.173901
							}
						}
					}
				}
			}
			JOINT RightCollar
			{
				OFFSET -2.882599 -1.580101 6.695801
				CHANNELS 6 Xposition Yposition Zposition Zrotation Xrotation Yrotation
				JOINT RightShoulder
				{
					OFFSET -4.235600 0.000000 0.000000
					CHANNELS 6 Xposition Yposition Zposition Zrotation Xrotation Yrotation
					JOINT RightElbow
					{
						OFFSET 0.000000 0.000000 -10.709900
						CHANNELS 6 Xposition Yposition Zposition Zrotation Xrotation Yrotation
						JOINT RightWrist
						{
							OFFSET 0.000000 0.000000 -11.716801
							CHANNELS 6 Xposition Yposition Zposition Zrotation Xrotation Yrotation
							End Site
							{
								OFFSET 0.000000 0.000000 -2.173901
							}
						}
					}
				}
			}
		}
	}
	JOINT LeftHip
	{
		OFFSET 2.279499 0.210400 -2.475502
		CHANNELS 6 Xposition Yposition Zposition Zrotation Xrotation Yrotation
		JOINT LeftKnee
		{
			OFFSET 0.000000 -0.000004 -20.742800
			CHANNELS 6 Xposition Yposition Zposition Zrotation Xrotation Yrotation
			JOINT LeftAnkle
			{
				OFFSET 0.000000 0.000000 -16.666000
				CHANNELS 6 Xposition Yposition Zposition Zrotation Xrotation Yrotation
				End Site
				{
					OFFSET 0.000000 -8.310898 0.000000
				}
			}
		}
	}
	JOINT RightHip
	{
		OFFSET -1.961899 0.232300 -2.727402
		CHANNELS 6 Xposition Yposition Zposition Zrotation Xrotation Yrotation
		JOINT RightKnee
		{
			OFFSET 0.000000 -0.000004 -20.526800
			CHANNELS 6 Xposition Yposition Zposition Zrotation Xrotation Yrotation
			JOINT RightAnkle
			{
				OFFSET 0.000000 0.000000 -16.867300
				CHANNELS 6 Xposition Yposition Zposition Zrotation Xrotation Yrotation
				End Site
				{
					OFFSET 0.000000 -7.186401 0.000000
				}
			}
		}
	}
}
MOTION
Frames: 8
Frame Time: 0.041667
78.134308 64.885895 22.988590 -87.482887 26.346886 -1.110488 -0.637409 0.831603 5.390094 -7.541248 42.531004 7.920088 0.000004 0.000005 4.429903 2.527843 -9.662907 -0.678052 0.000000 0.000006 10.301392 363.317815 32.066222 -0.948235 -0.000000 -0.000001 2.173916 -360.884219 5.850131 1.852931 2.142404 -0.572696 5.717804 -14.991239 13.130898 -4.248739 5.673993 0.000004 -0.000012 156.777758 173.197574 83.062716 0.000000 -0.000004 -12.238694 -120.661412 -160.770222 -144.930576 0.000002 0.000012 -10.253702 -114.579907 27.809259 -53.742732 -2.882595 -1.580095 6.695808 6.201883 14.589856 -5.012400 -4.235603 -0.000002 -0.000010 29.776008 -0.698627 111.516615 0.000002 -0.000015 -10.709894 -37.014906 -26.991982 -31.793216 0.000001 -0.000002 -11.716803 90.865094 18.182491 57.925031 2.279495 0.210401 -2.475502 148.048940 -49.303277 152.291512 -0.000002 -0.000008 -20.742805 -124.017534 -5.933860 110.691330 -0.000005 -0.000001 -16.665998 75.342355 17.008412 41.659158 -1.961901 0.232294 -2.727399 -125.371770 -28.750793 -104.560648 0.000002 -0.000011 -20.526800 168.012026 7.242498 -146.218108 0.000003 -0.000009 -16.867296 -57.157017 11.234767 -26.973493
78.153603 65.019295 22.897789 -86.592380 26.040445 -1.163120 -0.637395 0.831595 5.390090 -7.786148 42.563335 8.019405 0.000001 -0.000008 4.429907 2.508904 -9.658615 -0.686256 -0.000003 0.000001 10.301403 363.206483 32.036056 -0.738828 -0.000010 0.000007 2.173910 -360.669451 5.940465 1.985700 2.142396 -0.572706 5.717814 -14.725900 12.904481 -4.426981 5.673991 0.000006 0.000000 156.547198 173.096910 83.334906 -0.000001 -0.000002 -12.238692 -121.167488 -160.445611 -145.200765 0.000019 -0.000001 -10.253702 -114.386339 27.342562 -53.959000 -2.882605 -1.580102 6.695808 6.063141 14.379275 -4.714456 -4.235603 -0.000003 -0.000006 30.163287 -0.890783 111.157818 -0.000002 0.000001 -10.709911 -36.883633 -26.914255 -31.919489 -0.000016 0.000003 -11.716795 91.053887 18.177638 57.897103 2.279502 0.210403 -2.475517 148.223957 -49.384935 152.460682 -0.000009 -0.000003 -20.742798 -123.840906 -5.043017 111.023318 0.000002 0.000001 -16.665997 76.852489 17.546174 42.541102 -1.961887 0.232297 -2.727409 -125.425865 -28.721506 -104.444603 0.000011 -0.000001 -20.526800 167.846448 6.717732 -146.476726 0.000005 0.000003 -16.867302 -56.940118 11.484325 -27.430333
78.169907 65.154198 22.811584 -85.683343 25.751678 -1.229064 -0.637407 0.831611 5.390104 -8.087665 42.585157 8.153879 -0.000002 -0.000003 4.429907 2.763120 -9.633891 -0.643720 0.000003 -0.000003 10.301389 362.900573 31.987248 -0.524512 -0.000009 -0.000002 2.173893 -360.547709 5.989126 2.032438 2.142397 -0.572710 5.717789 -14.729979 12.674292 -4.640960 5.674005 0.000001 -0.000011 156.355885 172.994840 83.623290 0.000000 -0.000004 -12.238698 -121.514338 -160.216376 -145.394551 0.000010 0.000005 -10.253706 -114.166004 27.150022 -54.068023 -2.882602 -1.580106 6.695793 5.696503 14.201525 -4.507528 -4.235612 0.000003 0.000000 30.439073 -0.919130 110.894234 0.000002 -0.000005 -10.709909 -36.926499 -26.876917 -32.046349 -0.000000 0.000006 -11.716808 91.186762 18.138710 57.869509 2.279497 0.210409 -2.475499 148.342830 -49.430151 152.600524 -0.000002 -0.000009 -20.742800 -123.754312 -4.005345 111.430226 0.000003 0.000000 -16.666002 78.298563 18.091873 43.786256 -1.961891 0.232307 -2.727393 -125.488484 -28.694793 -104.331700 0.000000 -0.000008 -20.526800 167.624959 6.187903 -146.712709 -0.000000 -0.000003 -16.867298 -56.814459 11.719727 -27.954513
78.183212 65.289291 22.730980 -84.752819 25.488905 -1.305251 -0.637397 0.831596 5.390095 -8.384609 42.599951 8.269599 0.000002 0.000001 4.429904 2.773915 -9.615244 -0.645044 -0.000002 -0.000003 10.301394 362.793721 31.923877 -0.283545 0.000002 0.000004 2.173906 -360.341383 6.054981 2.114648 2.142397 -0.572698 5.717796 -14.529534 12.477780 -4.845571 5.674005 -0.000003 0.000006 156.210046 172.877853 83.898287 -0.000006 -0.000007 -12.238697 -121.650054 -160.091697 -145.480325 0.000009 0.000004 -10.253700 -114.198980 26.989115 -54.202059 -2.882615 -1.580103 6.695807 5.587572 14.029911 -4.257788 -4.235600 0.000010 0.000002 30.673017 -1.001089 110.580367 -0.000005 0.000001 -10.709904 -36.929774 -26.843835 -32.170406 -0.000014 0.000008 -11.716801 91.321576 18.107602 57.842727 2.279503 0.210403 -2.475506 148.377021 -49.411665 152.620659 -0.000012 0.000002 -20.742794 -123.771238 -2.939357 111.856266 0.000004 0.000005 -16.666000 79.854979 18.345475 45.279339 -1.961885 0.232291 -2.727392 -125.566252 -28.667974 -104.214364 0.000009 0.000002 -20.526802 167.328310 5.637872 -146.927150 0.000001 0.000003 -16.867300 -56.785701 11.925766 -28.543239
78.194313 65.424500 22.655085 -83.833202 25.251549 -1.374579 -0.637405 0.831609 5.390091 -8.658130 42.593606 8.371074 -0.000001 0.000004 4.429909 2.786605 -9.592091 -0.645599 -0.000003 0.000002 10.301396 362.664467 31.871176 -0.039191 0.000007 -0.000000 2.173908 -360.125248 6.093371 2.190323 2.142404 -0.572692 5.717801 -14.403330 12.333830 -5.014389 5.673994 -0.000004 0.000002 156.156976 172.765496 84.123718 -0.000006 -0.000001 -12.238697 -121.648142 -160.048148 -145.467798 0.000006 -0.000001 -10.253702 -114.410115 26.859137 -54.343219 -2.882598 -1.580095 6.695783 5.532511 13.913707 -4.017824 -4.235595 -0.000002 0.000003 30.813746 -1.084615 110.280999 0.000003 -0.000004 -10.709909 -36.899725 -26.846748 -32.256958 -0.000004 0.000001 -11.716799 91.405451 18.092121 57.818023 2.279496 0.210406 -2.475513 148.513024 -49.438426 152.710435 -0.000003 0.000003 -20.742811 -123.729847 -1.816923 112.292504 -0.000007 0.000009 -16.666000 81.339439 18.623358 47.077458 -1.961895 0.232308 -2.727415 -125.630579 -28.611026 -104.083374 0.000000 -0.000010 -20.526798 167.069637 5.145576 -147.147984 -0.000001 -0.000008 -16.867298 -56.689819 12.048004 -29.409668
78.203117 65.559387 22.583288 -82.933885 25.043112 -1.431604 -0.637401 0.831605 5.390099 -8.847562 42.583856 8.422071 0.000001 0.000001 4.429892 2.789700 -9.575598 -0.644944 -0.000000 -0.000000 10.301409 362.465736 31.793721 0.142945 -0.000010 0.000004 2.173909 -359.853707 6.145403 2.329833 2.142398 -0.572698 5.717807 -14.352700 12.272421 -5.103290 5.674008 -0.000000 0.000008 156.175827 172.676881 84.240316 0.000000 -0.000003 -12.238693 -121.330961 -160.176788 -145.282222 -0.000003 0.000002 -10.253698 -115.007900 26.776619 -54.502970 -2.882613 -1.580093 6.695801 5.480073 13.835458 -3.886486 -4.235601 0.000007 -0.000003 30.837952 -1.003371 110.079864 0.000015 -0.000010 -10.709902 -37.049716 -26.845592 -32.366149 -0.000012 -0.000003 -11.716793 91.533100 18.072944 57.744694 2.279504 0.210410 -2.475507 148.670733 -49.445310 152.779652 -0.000006 -0.000003 -20.742794 -123.714984 -0.644368 112.724233 -0.000001 -0.000008 -16.666000 82.795881 18.908211 48.942065 -1.961891 0.232317 -2.727404 -125.681259 -28.522298 -103.935200 -0.000006 0.000001 -20.526812 166.854254 4.715473 -147.369036 0.000005 0.000005 -16.867302 -56.721890 12.248396 -29.828160
78.209702 65.691093 22.516186 -82.057838 24.852232 -1.478924 -0.637404 0.831592 5.390098 -8.922461 42.588323 8.403101 -0.000002 -0.000007 4.429894 2.777281 -9.579399 -0.643847 0.000001 0.000008 10.301400 362.281075 31.747354 0.328788 -0.000002 0.000000 2.173912 -359.664183 6.182178 2.379030 2.142397 -0.572696 5.717805 -14.405933 12.317614 -5.062747 5.673996 -0.000002 -0.000001 156.269264 172.625327 84.210147 -0.000001 -0.000008 -12.238699 -120.815214 -160.440693 -144.990286 -0.000004 -0.000008 -10.253712 -115.879842 26.729455 -54.669657 -2.882601 -1.580092 6.695801 5.440729 13.810624 -3.899083 -4.235610 -0.000005 -0.000006 30.761529 -0.858221 110.018898 -0.000004 0.000004 -10.709915 -37.020838 -26.972337 -32.388245 -0.000009 -0.000008 -11.716801 91.386319 18.037078 57.748799 2.279497 0.210402 -2.475504 148.798512 -49.475220 152.796086 0.000000 -0.000005 -20.742807 -123.725899 0.543580 113.115084 0.000006 0.000007 -16.666000 84.290483 19.186307 50.854505 -1.961893 0.232300 -2.727392 -125.715424 -28.412586 -103.762595 0.000010 -0.000001 -20.526814 166.633789 4.308628 -147.572357 -0.000001 0.000013 -16.867300 -56.844949 12.451515 -30.245491
78.215118 65.817795 22.452188 -81.197726 24.686623 -1.535023 -0.637399 0.831593 5.390100 -8.974449 42.575718 8.371964 -0.000001 0.000005 4.429901 2.757187 -9.571088 -0.641675 0.000003 0.000002 10.301395 362.093326 31.708241 0.514685 0.000003 -0.000003 2.173902 -359.517061 6.209344 2.408542 2.142393 -0.572701 5.717804 -14.437739 12.351056 -5.058990 5.673996 0.000001 -0.000001 156.325845 172.570330 84.208931 0.000002 -0.000006 -12.238692 -120.143478 -160.798608 -144.619461 0.000010 0.000011 -10.253708 -116.943357 26.702819 -54.844049 -2.882603 -1.580096 6.695802 5.963985 11.308449 -3.772937 -4.235603 -0.000001 -0.000002 29.967756 1.255744 108.492152 0.000007 0.000002 -10.709902 -37.051437 -27.050698 -32.412335 -0.000007 0.000009 -11.716793 91.391736 18.031110 57.735439 2.279498 0.210392 -2.475502 148.955593 -49.474977 152.813065 -0.000011 -0.000007 -20.742805 -123.741335 1.815869 113.501099 -0.000004 0.000000 -16.665997 85.758209 19.544607 52.441858 -1.961893 0.232295 -2.727402 -125.750217 -28.283574 -103.599080 0.000001 -0.000007 -20.526804 166.444333 3.933447 -147.779926 0.000007 -0.000010 -16.867308 -56.988735 12.642328 -30.593408
